<svg width="20" height="20" viewBox="0 0 20 20" fill="none" xmlns="http://www.w3.org/2000/svg">
<g id="Icon">
<path id="Vector" d="M16.6667 5.00002H14.1667V3.33335C14.1667 2.40835 13.425 1.66669 12.5 1.66669H7.49999C6.57499 1.66669 5.83332 2.40835 5.83332 3.33335V5.00002H3.33332C2.40832 5.00002 1.66666 5.74169 1.66666 6.66669V15.8334C1.66666 16.7584 2.40832 17.5 3.33332 17.5H16.6667C17.5917 17.5 18.3333 16.7584 18.3333 15.8334V6.66669C18.3333 5.74169 17.5917 5.00002 16.6667 5.00002ZM7.49999 3.33335H12.5V5.00002H7.49999V3.33335ZM16.6667 15.8334H3.33332V14.1667H16.6667V15.8334ZM16.6667 11.6667H3.33332V6.66669H5.83332V8.33335H7.49999V6.66669H12.5V8.33335H14.1667V6.66669H16.6667V11.6667Z" fill="#FDB528"/>
</g>
</svg>
