<svg width="14" height="14" viewBox="0 0 14 14" fill="none" xmlns="http://www.w3.org/2000/svg">
<g id="Icon">
<path id="Vector" d="M10.7917 0L2.62502 0C1.82002 0 1.16669 0.653333 1.16669 1.45833V12.5417C1.16669 13.3467 1.82002 14 2.62502 14H10.7917C11.5967 14 12.25 13.3467 12.25 12.5417V1.45833C12.25 0.653333 11.5967 0 10.7917 0ZM6.70835 13.4167C6.22419 13.4167 5.83335 13.0258 5.83335 12.5417C5.83335 12.0575 6.22419 11.6667 6.70835 11.6667C7.19252 11.6667 7.58335 12.0575 7.58335 12.5417C7.58335 13.0258 7.19252 13.4167 6.70835 13.4167ZM11.0834 11.0833H2.33335V1.75H11.0834V11.0833Z" fill="#FDB528"/>
</g>
</svg>
