<svg width="25" height="24" viewBox="0 0 25 24" fill="none" xmlns="http://www.w3.org/2000/svg">
<path d="M12.3333 8C13.4333 8 14.3333 7.1 14.3333 6C14.3333 4.9 13.4333 4 12.3333 4C11.2333 4 10.3333 4.9 10.3333 6C10.3333 7.1 11.2333 8 12.3333 8ZM12.3333 10C11.2333 10 10.3333 10.9 10.3333 12C10.3333 13.1 11.2333 14 12.3333 14C13.4333 14 14.3333 13.1 14.3333 12C14.3333 10.9 13.4333 10 12.3333 10ZM12.3333 16C11.2333 16 10.3333 16.9 10.3333 18C10.3333 19.1 11.2333 20 12.3333 20C13.4333 20 14.3333 19.1 14.3333 18C14.3333 16.9 13.4333 16 12.3333 16Z" fill="#4C4E64" fill-opacity="0.54"/>
</svg>
