<svg width="24" height="25" viewBox="0 0 24 25" fill="none" xmlns="http://www.w3.org/2000/svg">
<g id="Icon">
<path id="Vector" d="M12 5.95426C13.16 5.95426 14.1 6.89426 14.1 8.05426C14.1 9.21426 13.16 10.1543 12 10.1543C10.84 10.1543 9.9 9.21426 9.9 8.05426C9.9 6.89426 10.84 5.95426 12 5.95426ZM12 14.9543C14.97 14.9543 18.1 16.4143 18.1 17.0543V18.1543H5.9V17.0543C5.9 16.4143 9.03 14.9543 12 14.9543ZM12 4.05426C9.79 4.05426 8 5.84426 8 8.05426C8 10.2643 9.79 12.0543 12 12.0543C14.21 12.0543 16 10.2643 16 8.05426C16 5.84426 14.21 4.05426 12 4.05426ZM12 13.0543C9.33 13.0543 4 14.3943 4 17.0543V20.0543H20V17.0543C20 14.3943 14.67 13.0543 12 13.0543Z" fill="#666CFF"/>
</g>
</svg>
